<svg width="109" height="51" viewBox="0 0 109 51" fill="none" xmlns="http://www.w3.org/2000/svg">
<path d="M65.1404 12.6759C62.8279 12.6649 60.965 14.5102 60.9541 16.8227L60.885 31.4059L65.0516 31.4256C65.0438 33.0832 65.6947 34.6761 66.8613 35.8537C68.0278 37.0314 69.6144 37.6974 71.272 37.7053C72.9296 37.7131 74.5224 37.0622 75.7 35.8957C76.8776 34.7292 77.5436 33.1426 77.5515 31.485L90.0513 31.5444C90.0435 33.202 90.6944 34.7948 91.861 35.9724C93.0275 37.1501 94.6141 37.8161 96.2717 37.824C97.9293 37.8319 99.5221 37.181 100.7 36.0144C101.877 34.8479 102.543 33.2613 102.551 31.6038L106.718 31.6235L106.787 17.0404C106.798 14.7279 104.952 12.865 102.64 12.854L65.1404 12.6759ZM64.084 15.7959L72.4172 15.8355L72.3925 21.0437L64.0593 21.0041L64.084 15.7959ZM75.5422 15.8503L83.8754 15.8899L83.8507 21.0982L75.5175 21.0586L75.5422 15.8503ZM87.0004 15.9047L95.3336 15.9443L95.3089 21.1526L86.9757 21.113L87.0004 15.9047ZM98.4586 15.9591L103.667 15.9839L103.613 27.4421L98.424 23.2507L98.4586 15.9591ZM71.3164 28.3304C72.1451 28.3343 72.9384 28.6673 73.5217 29.2561C74.105 29.845 74.4304 30.6414 74.4265 31.4702C74.4226 32.299 74.0896 33.0922 73.5008 33.6755C72.912 34.2588 72.1156 34.5842 71.2868 34.5803C70.458 34.5764 69.6647 34.2433 69.0814 33.6545C68.4981 33.0657 68.1727 32.2693 68.1766 31.4405C68.1805 30.6117 68.5135 29.8184 69.1023 29.2351C69.6912 28.6519 70.4876 28.3264 71.3164 28.3304M96.3161 28.4491C97.1449 28.453 97.9382 28.7861 98.5214 29.3749C99.1047 29.9637 99.4302 30.7601 99.4262 31.5889C99.4223 32.4177 99.0893 33.211 98.5005 33.7942C97.9117 34.3775 97.1153 34.703 96.2865 34.699C95.4577 34.6951 94.6644 34.3621 94.0811 33.7733C93.4979 33.1844 93.1724 32.388 93.1763 31.5592C93.1802 30.7304 93.5132 29.9372 94.1021 29.3539C94.6909 28.7706 95.4873 28.4452 96.3161 28.4491Z" fill="#FFCE21"/>
<line y1="-0.5" x2="58.0005" y2="-0.5" transform="matrix(-0.999736 -0.0229818 0.022967 -0.999736 58.9283 34.3593)" stroke="black"/>
</svg>
